<?xml version="1.0" encoding="UTF-8"?>
<!DOCTYPE svg PUBLIC "-//W3C//DTD SVG 1.1//EN" "http://www.w3.org/Graphics/SVG/1.1/DTD/svg11.dtd">
<svg xmlns="http://www.w3.org/2000/svg" version="1.1" width="510px" height="727px" style="shape-rendering:geometricPrecision; text-rendering:geometricPrecision; image-rendering:optimizeQuality; fill-rule:evenodd; clip-rule:evenodd" xmlns:xlink="http://www.w3.org/1999/xlink">
<g><path style="opacity:1" fill="#c7c8c7" d="M -0.5,-0.5 C 169.5,-0.5 339.5,-0.5 509.5,-0.5C 509.5,241.833 509.5,484.167 509.5,726.5C 339.5,726.5 169.5,726.5 -0.5,726.5C -0.5,484.167 -0.5,241.833 -0.5,-0.5 Z"/></g>
<g><path style="opacity:1" fill="#fefefe" d="M 179.5,287.5 C 229.833,287.5 280.167,287.5 330.5,287.5C 330.5,337.833 330.5,388.167 330.5,438.5C 280.167,438.5 229.833,438.5 179.5,438.5C 179.5,388.167 179.5,337.833 179.5,287.5 Z"/></g>
<g><path style="opacity:1" fill="#050505" d="M 238.5,356.5 C 237.518,353.038 237.185,349.371 237.5,345.5C 247.543,341.386 257.543,341.553 267.5,346C 273.164,351.779 273.997,358.279 270,365.5C 266.667,368.833 263.333,372.167 260,375.5C 259.506,377.134 259.34,378.801 259.5,380.5C 254.833,380.5 250.167,380.5 245.5,380.5C 245.337,378.143 245.503,375.81 246,373.5C 249.667,369.833 253.333,366.167 257,362.5C 259.975,355.959 257.808,352.626 250.5,352.5C 246.145,352.84 242.145,354.174 238.5,356.5 Z"/></g>
<g><path style="opacity:1" fill="#858585" d="M 237.5,345.5 C 237.185,349.371 237.518,353.038 238.5,356.5C 238.44,357.043 238.107,357.376 237.5,357.5C 236.191,353.351 236.191,349.351 237.5,345.5 Z"/></g>
<g><path style="opacity:1" fill="#070707" d="M 245.5,386.5 C 250.167,386.5 254.833,386.5 259.5,386.5C 259.5,391.167 259.5,395.833 259.5,400.5C 254.833,400.5 250.167,400.5 245.5,400.5C 245.5,395.833 245.5,391.167 245.5,386.5 Z"/></g>
</svg>
