<svg xmlns="http://www.w3.org/2000/svg" version="1.1" width="219px" height="230px" style="shape-rendering:geometricPrecision; text-rendering:geometricPrecision; image-rendering:optimizeQuality; fill-rule:evenodd; clip-rule:evenodd" xmlns:xlink="http://www.w3.org/1999/xlink">
<g></g>
<g><path style="opacity:1" fill="#080711" d="M 94.5,10.5 C 145.732,6.85074 182.565,27.8507 205,73.5C 220.559,116.274 213.225,154.607 183,188.5C 148.677,219.408 109.843,226.574 66.5,210C 23.5191,188.236 3.01907,153.069 5,104.5C 11.3894,62.1281 34.2228,32.6281 73.5,16C 80.5835,13.9806 87.5835,12.1473 94.5,10.5 Z" data-index="1"></path></g>
<g><path style="opacity:1" fill="#171526" d="M 100.5,20.5 C 145.298,19.5105 177.131,39.1772 196,79.5C 209.843,121.967 200.343,158.133 167.5,188C 128.5,215.333 89.5,215.333 50.5,188C 20.5552,161.159 10.0552,127.992 19,88.5C 32.4263,49.2311 59.593,26.5645 100.5,20.5 Z" data-index="2"></path></g>
<g><path style="opacity:1" fill="#03d3f8" d="M 69.5,41.5 C 79.0082,40.2801 87.6748,42.4468 95.5,48C 100.289,51.1426 104.789,54.6426 109,58.5C 116.58,51.6236 125.08,46.1236 134.5,42C 148.097,38.599 156.264,43.7657 159,57.5C 159.829,67.5839 159.329,77.5839 157.5,87.5C 169.361,90.1794 179.528,95.846 188,104.5C 193.842,114.55 192.008,123.05 182.5,130C 175.104,135.855 166.771,139.688 157.5,141.5C 159.408,151.073 159.908,160.74 159,170.5C 155.196,187.485 145.363,192.318 129.5,185C 122.134,181.134 115.467,176.301 109.5,170.5C 101.541,178.314 92.2076,183.814 81.5,187C 68.4087,189.253 60.9087,183.753 59,170.5C 58.0837,161.742 58.5837,153.076 60.5,144.5C 60.1667,143.833 59.8333,143.167 59.5,142.5C 47.9804,139.162 38.1471,133.162 30,124.5C 25.3333,117.833 25.3333,111.167 30,104.5C 38.2738,95.6934 48.2738,89.6934 60,86.5C 58.7241,76.5754 58.3908,66.5754 59,56.5C 60.3912,49.9548 63.8912,44.9548 69.5,41.5 Z" data-index="3"></path></g>
<g><path style="opacity:1" fill="#2c2639" d="M 100.5,149.5 C 105.985,148.348 111.651,148.182 117.5,149C 114.992,152.338 112.325,155.505 109.5,158.5C 106.118,155.785 103.118,152.785 100.5,149.5 Z" data-index="4"></path></g>
<g><path style="opacity:1" fill="#2b293c" d="M 88.5,176.5 C 80.6879,173.031 73.3546,168.698 66.5,163.5C 66.0724,156.918 66.9057,150.585 69,144.5C 76.0298,146.255 83.1964,147.421 90.5,148C 94.6428,153.644 98.9761,159.144 103.5,164.5C 99.0826,169.253 94.0826,173.253 88.5,176.5 Z" data-index="5"></path></g>
<g><path style="opacity:1" fill="#2b2a3d" d="M 151.5,166.5 C 151.649,165.448 151.483,164.448 151,163.5C 144.673,168.992 137.506,172.992 129.5,175.5C 124.258,173.283 119.758,169.95 116,165.5C 116.044,163.721 116.711,162.055 118,160.5C 121.357,156.644 124.524,152.644 127.5,148.5C 135.101,146.795 142.768,145.462 150.5,144.5C 151.269,149.644 151.935,154.811 152.5,160C 152.496,162.361 152.163,164.527 151.5,166.5 Z" data-index="6"></path></g>
<g><path style="opacity:1" fill="#2c273a" d="M 141.5,124.5 C 143.335,125.122 144.502,126.456 145,128.5C 146.115,131.155 146.782,133.821 147,136.5C 142.909,138.101 138.743,138.434 134.5,137.5C 137.293,133.385 139.626,129.051 141.5,124.5 Z" data-index="7"></path></g>
<g><path style="opacity:1" fill="#2c293c" d="M 74.5,124.5 C 78.3022,128.838 81.6356,133.671 84.5,139C 79.7698,138.821 75.1032,137.988 70.5,136.5C 72.0426,132.539 73.376,128.539 74.5,124.5 Z" data-index="8"></path></g>
<g><path style="opacity:1" fill="#181524" d="M 173.5,102.5 C 186.833,110.5 186.833,118.5 173.5,126.5C 173.5,118.5 173.5,110.5 173.5,102.5 Z" data-index="9"></path></g>
<g><path style="opacity:1" fill="#181424" d="M 46.5,101.5 C 43.9031,110.206 43.9031,118.873 46.5,127.5C 30.5,118.833 30.5,110.167 46.5,101.5 Z" data-index="10"></path></g>
<g><path style="opacity:1" fill="#2b293c" d="M 173.5,102.5 C 173.5,110.5 173.5,118.5 173.5,126.5C 167.9,130.733 161.733,133.066 155,133.5C 152.792,127.042 150.292,120.709 147.5,114.5C 150.409,108.02 152.742,101.353 154.5,94.5C 161.387,96.0129 167.72,98.6795 173.5,102.5 Z" data-index="11"></path></g>
<g><path style="opacity:1" fill="#2b293c" d="M 46.5,127.5 C 43.9031,118.873 43.9031,110.206 46.5,101.5C 51.5655,97.4799 57.2321,95.4799 63.5,95.5C 65.6383,101.916 67.9716,108.249 70.5,114.5C 67.7628,121.046 65.4295,127.712 63.5,134.5C 59.3072,134.047 55.3072,132.881 51.5,131C 49.4156,130.303 47.7489,129.136 46.5,127.5 Z" data-index="12"></path></g>
<g><path style="opacity:1" fill="#2c283b" d="M 134.5,90.5 C 139.035,90.6446 143.368,91.4779 147.5,93C 146.127,96.9498 144.46,100.783 142.5,104.5C 139.378,100.056 136.711,95.3898 134.5,90.5 Z" data-index="13"></path></g>
<g><path style="opacity:1" fill="#2c283b" d="M 77.5,90.5 C 79.604,90.2011 81.604,90.5344 83.5,91.5C 80.8333,95.8333 78.1667,100.167 75.5,104.5C 73.9288,100.618 72.2622,96.7847 70.5,93C 72.9269,92.0977 75.2603,91.2644 77.5,90.5 Z" data-index="14"></path></g>
<g><path style="opacity:1" fill="#3f3e53" d="M 94.5,88.5 C 104.172,88.3335 113.839,88.5002 123.5,89C 129.13,97.0886 134.13,105.589 138.5,114.5C 134.13,123.411 129.13,131.911 123.5,140C 113.833,140.667 104.167,140.667 94.5,140C 88.8697,131.911 83.8697,123.411 79.5,114.5C 84.0065,105.479 89.0065,96.8124 94.5,88.5 Z" data-index="15"></path></g>
<g><path style="opacity:1" fill="#02d5fb" d="M 104.5,99.5 C 121.163,99.825 126.663,107.825 121,123.5C 110.73,132.414 102.064,131.081 95,119.5C 93.0951,110.313 96.2617,103.646 104.5,99.5 Z" data-index="16"></path></g>
<g><path style="opacity:1" fill="#2c2437" d="M 108.5,70.5 C 111.999,73.1662 114.999,76.3329 117.5,80C 111.833,80.6667 106.167,80.6667 100.5,80C 103.002,76.6675 105.668,73.5008 108.5,70.5 Z" data-index="17"></path></g>
<g><path style="opacity:1" fill="#2b293c" d="M 130.5,52.5 C 137.321,55.8347 143.821,59.8347 150,64.5C 150.179,68.0252 150.679,71.3586 151.5,74.5C 150.895,77.1267 150.395,79.7934 150,82.5C 149.612,83.428 148.945,84.0946 148,84.5C 140.899,83.4277 133.899,82.0944 127,80.5C 123.075,74.9855 118.908,69.6521 114.5,64.5C 119.148,59.5175 124.481,55.5175 130.5,52.5 Z" data-index="18"></path></g>
<g><path style="opacity:1" fill="#2b293c" d="M 87.5,52.5 C 94.1971,55.392 99.3638,59.7253 103,65.5C 98.454,70.3774 94.2873,75.544 90.5,81C 83.1155,81.9357 75.7821,83.1023 68.5,84.5C 66.9938,78.2674 66.3272,71.934 66.5,65.5C 73.0661,60.3877 80.0661,56.0544 87.5,52.5 Z" data-index="19"></path></g>
<g><path style="opacity:1" fill="#191525" d="M 151.5,74.5 C 150.679,71.3586 150.179,68.0252 150,64.5C 143.821,59.8347 137.321,55.8347 130.5,52.5C 135.448,48.7854 140.781,47.9521 146.5,50C 148.894,51.9522 150.394,54.4522 151,57.5C 151.499,63.1569 151.666,68.8236 151.5,74.5 Z" data-index="20"></path></g>
<g><path style="opacity:1" fill="#181525" d="M 87.5,52.5 C 80.0661,56.0544 73.0661,60.3877 66.5,65.5C 66.1753,49.1447 73.1753,44.8114 87.5,52.5 Z" data-index="21"></path></g>
<g><path style="opacity:1" fill="#181525" d="M 66.5,163.5 C 73.3546,168.698 80.6879,173.031 88.5,176.5C 73.7368,184.737 66.4035,180.403 66.5,163.5 Z" data-index="22"></path></g>
<g><path style="opacity:1" fill="#171424" d="M 151.5,166.5 C 149.267,181.554 141.934,184.554 129.5,175.5C 137.506,172.992 144.673,168.992 151,163.5C 151.483,164.448 151.649,165.448 151.5,166.5 Z" data-index="23"></path></g>
</svg>